<svg width="46" height="46" viewBox="0 0 46 46" fill="none" xmlns="http://www.w3.org/2000/svg">
<path d="M37.1882 9.04144L8.90389 37.3257C7.93751 38.2921 6.65529 38.6126 6.07546 38.0328C5.49563 37.453 5.81619 36.1708 6.78257 35.2044L35.0668 6.92012C36.0332 5.95374 37.3154 5.63318 37.8953 6.21301C38.4751 6.79284 38.1545 8.07506 37.1882 9.04144Z" fill="#312F30"/>
<path d="M38.8269 37.9834C38.2471 38.5632 36.9648 38.2427 35.9985 37.2763L7.71418 8.99201C6.7478 8.02563 6.42725 6.74341 7.00708 6.16358C7.5869 5.58376 8.86912 5.90431 9.8355 6.87069L38.1198 35.155C39.0862 36.1213 39.4067 37.4036 38.8269 37.9834Z" fill="#312F30"/>
</svg>
