<svg width="19" height="22" viewBox="0 0 19 22" fill="none" xmlns="http://www.w3.org/2000/svg">
<mask id="path-1-inside-1_355_193" fill="white">
<path d="M8.75 11.75C5.58 11.75 3 9.17 3 6C3 2.83 5.58 0.25 8.75 0.25C11.92 0.25 14.5 2.83 14.5 6C14.5 9.17 11.92 11.75 8.75 11.75ZM8.75 1.75C6.41 1.75 4.5 3.66 4.5 6C4.5 8.34 6.41 10.25 8.75 10.25C11.09 10.25 13 8.34 13 6C13 3.66 11.09 1.75 8.75 1.75Z"/>
</mask>
<path d="M8.75 11.75C5.58 11.75 3 9.17 3 6C3 2.83 5.58 0.25 8.75 0.25C11.92 0.25 14.5 2.83 14.5 6C14.5 9.17 11.92 11.75 8.75 11.75ZM8.75 1.75C6.41 1.75 4.5 3.66 4.5 6C4.5 8.34 6.41 10.25 8.75 10.25C11.09 10.25 13 8.34 13 6C13 3.66 11.09 1.75 8.75 1.75Z" fill="#95D753"/>
<path d="M8.75 9.75C6.68457 9.75 5 8.06543 5 6H1C1 10.2746 4.47543 13.75 8.75 13.75V9.75ZM5 6C5 3.93457 6.68457 2.25 8.75 2.25V-1.75C4.47543 -1.75 1 1.72543 1 6H5ZM8.75 2.25C10.8154 2.25 12.5 3.93457 12.5 6H16.5C16.5 1.72543 13.0246 -1.75 8.75 -1.75V2.25ZM12.5 6C12.5 8.06543 10.8154 9.75 8.75 9.75V13.75C13.0246 13.75 16.5 10.2746 16.5 6H12.5ZM8.75 -0.25C5.30543 -0.25 2.5 2.55543 2.5 6H6.5C6.5 4.76457 7.51457 3.75 8.75 3.75V-0.25ZM2.5 6C2.5 9.44457 5.30543 12.25 8.75 12.25V8.25C7.51457 8.25 6.5 7.23543 6.5 6H2.5ZM8.75 12.25C12.1946 12.25 15 9.44457 15 6H11C11 7.23543 9.98543 8.25 8.75 8.25V12.25ZM15 6C15 2.55543 12.1946 -0.25 8.75 -0.25V3.75C9.98543 3.75 11 4.76457 11 6H15Z" fill="#95D753" mask="url(#path-1-inside-1_355_193)"/>
<mask id="path-3-inside-2_355_193" fill="white">
<path d="M17.93 21.75C17.52 21.75 17.18 21.41 17.18 21C17.18 17.55 13.66 14.75 9.34 14.75C5.02 14.75 1.5 17.55 1.5 21C1.5 21.41 1.16 21.75 0.75 21.75C0.34 21.75 0 21.41 0 21C0 16.73 4.19 13.25 9.34 13.25C14.49 13.25 18.68 16.73 18.68 21C18.68 21.41 18.34 21.75 17.93 21.75Z"/>
</mask>
<path d="M17.93 21.75C17.52 21.75 17.18 21.41 17.18 21C17.18 17.55 13.66 14.75 9.34 14.75C5.02 14.75 1.5 17.55 1.5 21C1.5 21.41 1.16 21.75 0.75 21.75C0.34 21.75 0 21.41 0 21C0 16.73 4.19 13.25 9.34 13.25C14.49 13.25 18.68 16.73 18.68 21C18.68 21.41 18.34 21.75 17.93 21.75Z" fill="#95D753"/>
<path d="M17.93 19.75C18.6246 19.75 19.18 20.3054 19.18 21H15.18C15.18 22.5146 16.4154 23.75 17.93 23.75V19.75ZM19.18 21C19.18 16.0452 14.3165 12.75 9.34 12.75V16.75C13.0035 16.75 15.18 19.0548 15.18 21H19.18ZM9.34 12.75C4.36347 12.75 -0.5 16.0452 -0.5 21H3.5C3.5 19.0548 5.67652 16.75 9.34 16.75V12.75ZM-0.5 21C-0.5 20.3054 0.0554305 19.75 0.75 19.75V23.75C2.26457 23.75 3.5 22.5146 3.5 21H-0.5ZM0.75 19.75C1.44457 19.75 2 20.3054 2 21H-2C-2 22.5146 -0.76457 23.75 0.75 23.75V19.75ZM2 21C2 18.1672 4.92959 15.25 9.34 15.25V11.25C3.45041 11.25 -2 15.2928 -2 21H2ZM9.34 15.25C13.7504 15.25 16.68 18.1672 16.68 21H20.68C20.68 15.2928 15.2296 11.25 9.34 11.25V15.25ZM16.68 21C16.68 20.3054 17.2354 19.75 17.93 19.75V23.75C19.4446 23.75 20.68 22.5146 20.68 21H16.68Z" fill="#95D753" mask="url(#path-3-inside-2_355_193)"/>
</svg>
